
<svg xmlns="http://www.w3.org/2000/svg" width="630.95" height="590.83"><defs><clipPath id="b"><path d="M0 1090.67h612V0H0v1090.67z"/></clipPath><clipPath id="c"><path d="M160.8 1054.46H433V882H160.8v172.46z"/></clipPath><clipPath id="d"><path d="M107.76 1036.47h158.9V929.71h-158.9v106.76z"/></clipPath><clipPath id="e"><path d="M26.44 1007.89h467.32V764.03H26.44v243.86z"/></clipPath><clipPath id="f"><path d="M273.94 774.95h210.14v-95.28H273.94v95.28z"/></clipPath><clipPath id="g"><path d="M31.3 985.16h48.3V786.53H31.3v198.63z"/></clipPath><clipPath id="h"><path d="M23.05 1075.55H226.6v-46.41H23.06v46.41z"/></clipPath><clipPath id="i"><path d="M279.43 923.68h149.95V806.33H279.43v117.35z"/></clipPath><clipPath id="j"><path d="M128.13 835.58h26.54v-105h-26.54v105z"/></clipPath><clipPath id="k"><path d="M213.16 781.58h78.44V701.4h-78.44v80.18z"/></clipPath><clipPath id="l"><path d="M86.31 908.9H381.3V619.17H86.3V908.9z"/></clipPath><clipPath id="m"><path d="M120.51 689.47h40.44v-73.73h-40.44v73.73z"/></clipPath><clipPath id="n"><path d="M415.58 953.88h92.88V779.06h-92.88v174.81z"/></clipPath><linearGradient x2="1" gradientUnits="userSpaceOnUse" gradientTransform="scale(-447.8083 447.8083) rotate(-73 1.22 1.62)" id="a"><stop offset="0" stop-color="#b1dfff"/><stop offset=".6" stop-color="#0fabff"/><stop offset="1" stop-color="#0089cc"/></linearGradient></defs><path d="M24.55 1010.16c.6-.98 1.04-1.48 1.04-1.48s90.63-382.26 97.77-385.58c9.13-4.26 103.87 33.18 193.74 70.6 90.09 37.53 175.27 75.05 164.43 70.59l13.78 10.04 1.5 1.46c22.94 13.86 9.05 56.7 9.05 56.7l-97.43 130.22-175.82 95.23-172.05 17.85c-48.8-36.5-39.63-59.75-36.01-65.63" fill="url(#a)" transform="matrix(1.25 0 0 -1.25 -16.7 1356.4)"/><g clip-path="url(#b)" transform="matrix(1.25 0 0 -1.25 -16.7 1356.4)"><g clip-path="url(#c)" opacity=".75"><path d="M236.06 1054.45l-75.26-11.84 115.53-106.3L433 882.01l-25.77 81.56-171.16 90.88z" fill="#fff"/></g><g clip-path="url(#d)" opacity=".75"><path d="M152 1036.47l-44.24-86.5 158.9-20.26L152 1036.47z" fill="#fff"/></g><g clip-path="url(#e)" opacity=".79"><path d="M493.76 776.04s-163.45 22.99-246.38 67.8c-82.93 44.8-103.03 60.42-220.94 164.05l5.9-24.78s106.2-105 183.76-142.43c77.58-37.42 185.15-66.63 266.15-76.65l11.51 12z" fill="#b5def6"/></g><g clip-path="url(#f)" opacity=".6"><path d="M427.86 774.95c9.04-.77 8.36-1.11 56.23-10.35l-210.15-84.93 153.92 95.28z" fill="#b5def6"/></g><g clip-path="url(#g)" opacity=".6"><path d="M72.04 948.44c-2.84 5.85-40.74 36.72-40.74 36.72l48.3-198.63" fill="#b5def6"/></g><g clip-path="url(#h)" opacity=".75"><path d="M226.6 1057.53l-165.08 18.02s-33.53-23.62-38.47-46.41l203.54 28.4z" fill="#fff"/></g><g clip-path="url(#i)" opacity=".75"><path d="M429.38 871.95l-149.95 51.73 92-117.35 57.95 65.62z" fill="#fff"/></g><g clip-path="url(#j)" opacity=".46"><path d="M154.67 835.58l-26.54-80.12 4.93-24.88 21.61 105z" fill="#fff"/></g><g clip-path="url(#k)" opacity=".35"><path d="M291.6 781.58l-78.44-80.18 15.51 3.77 62.93 76.41z" fill="#fff"/></g><g clip-path="url(#l)" opacity=".8"><path d="M381.29 753.57c-1.53 2.57-207.8-84.28-207.8-84.28l26.5 27.74 23.21 113.6-.07-.09.03.17-80.6-83.33-7.92-37.55S89.76 909.1 86.77 908.9c-3-.2 9.93-197.08 9.93-197.08s25.21-90.83 25.55-91.54l-.37-.69a1.91 1.91 0 0 1 .62-.04c.09-.13.18-.26.3-.38l.3.6c.77.1 89.96 30.63 89.96 30.63S382.81 750.99 381.3 753.57" fill="#b5def6"/></g><path d="M229.58 1038.46c-15.76 2.61-29.88-3.35-31.52-13.31-1.58-9.53 8.83-19.26 23.54-22.37.18-4.08 4.98-8.01 11.45-9.09 7.06-1.17 13.38 1.5 14.12 5.97.3 1.75-.35 3.51-1.63 5.09 5.22 2.43 8.81 6.23 9.59 10.95 1.65 9.97-9.8 20.16-25.55 22.76" fill="#fff"/><path d="M27.91 986.1S51 964.3 75.13 943.36s-46.28 32.9-48.7 37.02" fill="#0988c9"/><g clip-path="url(#m)" opacity=".8"><path d="M130.84 615.74l22.81 34.13-17.02-19.97 24.32 59.57-34-61.55-2.67 48.78-3.77-60.44 10.33-.52z" fill="#fff"/></g><path d="M61.95 1085.11c-2.25 0-4.27-.62-6-1.85-22.57-16.04-36.33-32.55-40.91-49.06-4.07-14.68.35-25.28 1.8-28.77l.08-.17c2.2-9.58 24.16-102.04 46.46-192.83 13.57-55.25 24.7-99.48 33.1-131.5 4.97-18.96 9.01-33.75 12.02-43.96 5.33-18.1 6.95-21.4 11.55-23.54 1.4-.65 2.94-.98 4.57-.98 3.92 0 11.21 0 186.37 71.06 74.25 30.12 172.18 70.53 174.6 71.93 2.16 1.24 6.89 5.25 14.05 11.9 10.46 8.12 16.73 21.93 18.16 39.99 1.05 13.3-.79 24.88-1.54 27.37-.64 2.1-.64 2.1-16.93 23.95a21872.92 21872.92 0 0 1-33.49 44.73 64098.34 64098.34 0 0 1-48.58 64.65l-1.33 1.77-1.95 1.03-178.17 94.7-1.66.88-1.87.22c-27.1 3.08-162.64 18.48-170.33 18.48m0-9.93c7.51 0 169.2-18.43 169.2-18.43l178.17-94.7s97.05-128.97 97.42-130.21c.81-2.69 6.77-41.63-13.52-56.9 0 0-10.27-9.55-12.6-10.9-2.3-1.33-341.36-141.66-356-141.66-.17 0-.3.02-.38.06-7.14 3.32-96.84 381.1-97.76 385.58-.59 2.85-18.05 29.27 35.2 67.13a.8.8 0 0 0 .27.03" fill="#0988c9"/><g clip-path="url(#n)" opacity=".75"><path d="M415.58 953.88l90.85-121.29s8.27-36.54-8.6-53.53l-82.25 174.82z" fill="#fff"/></g><path d="M484.08 764.03s-43.74 4.66-66.58 10.92c-22.84 6.26 20.2-9.31 63.7-13.9" fill="#0988c9"/><path d="M120.24 628.82c2.21 3-.02-7.42 7.55-5.57 7.56 1.84-4.22-5.16-4.72-5.11-.5.04-5.8 3.96-5.82 4.46-.02.5.79 3.22 3 6.22" fill="#0e89cb"/></g></svg>