
<svg height="239" width="241" xmlns="http://www.w3.org/2000/svg"><path d="M103.11 84.31a14.81 14.81 0 0 0 4.54-11.08V15.28a14.62 14.62 0 0 0-29.23 0v33.26L50.2 31.9c-7.05-4.53-16.12-2.52-20.15 4.53-4.54 7.06-2.52 16.13 4.53 20.16.5 0 .5.5 1.01.5l50.39 29.23c5.04 3.52 12.6 2.52 17.13-2.02zm-21.67 35.27c0-5.54-2.52-10.58-7.56-13.1L23.5 77.25c-7.06-4.53-16.13-2.51-20.16 4.54-4.54 7.06-2.52 16.12 4.54 20.16.5 0 .5.5 1 .5l28.72 16.63L8.88 135.7c-7.05 4.03-10.08 12.6-6.04 20.15 4.03 7.56 12.6 10.08 20.15 6.05h1l50.4-29.22c4.53-2.52 7.05-7.56 7.05-13.1zm26.2 45.86v58.45a14.62 14.62 0 0 1-29.22 0v-32.75L49.7 207.75c-7.06 4.54-16.13 2.52-20.16-4.53-4.53-7.06-2.52-16.13 4.54-20.16.5 0 .5-.5 1-.5l50.4-29.23a15.14 15.14 0 0 1 20.65 6.05c1.01 1.51 2.02 4.03 1.52 6.05zm26.2 1.5v56.95a14.62 14.62 0 0 0 29.23 0v-32.76l28.22 16.13c7.05 4.53 16.12 2.52 20.15-4.54 4.54-7.05 2.52-16.12-4.53-20.15-.5 0-.5-.5-1-.5l-50.4-29.23a14.83 14.83 0 0 0-20.15 5.54c-1.01 2.52-2.02 6.05-1.51 8.57zm26.2-47.36c0-5.54 2.53-10.58 7.57-13.1l50.38-29.22c7.06-4.54 16.13-2.52 20.16 4.53 4.53 7.06 2.52 16.13-4.53 20.16-.5 0-.5.5-1.01.5l-28.73 16.63 28.73 16.63c7.05 4.03 10.07 12.6 6.04 20.15-4.03 7.06-12.6 10.08-20.15 6.05-.5 0-.5-.5-1-.5l-50.4-29.23c-4.53-2.01-7.56-7.05-7.05-12.6zm-26.2-47.36V15.28a14.62 14.62 0 0 1 29.23 0v32.75l28.22-16.12c7.05-4.54 16.12-2.52 20.15 4.53 4.54 7.06 2.52 16.13-4.53 20.16-.5 0-.5.5-1 .5l-50.4 29.23a14.83 14.83 0 0 1-20.15-5.55c-1.01-2.51-2.02-5.54-1.51-8.56zm-7.05 21.16c-1-1-2.02-1.51-3.53-1.51h-5.04c-1.5 0-2.51.5-3.52 1.51l-20.16 20.16c-1 1-1.5 2.01-1.5 3.52v5.04c0 1.52.5 2.52 1.5 3.53l20.16 20.16c1 1 2.01 1.5 3.53 1.5h5.03c1.52 0 2.53-.5 3.53-1.5l20.16-20.16c.5-1 1-2.52 1-3.53v-5.04c0-1.5-.5-2.52-1.5-3.52zm-3.02 17.64a3.84 3.84 0 0 0-2.52-1.01c-1.01 0-2.02.5-2.52 1l-6.05 6.05c-.5.5-1 1.52-1 2.52 0 1.01.5 2.02 1 2.53l6.05 6.04c.5.5 1.5 1 2.52 1 1 0 2.01-.5 2.52-1l6.04-6.04c.5-.5 1.01-1.52 1.01-2.53 0-1-.5-2.01-1-2.52z" fill="#31bef0"/></svg>