
<svg xmlns="http://www.w3.org/2000/svg" width="190" height="190" viewBox="0 0 19 19"><defs><linearGradient id="a" x1="12.96%" x2="79.64%" y1="11.7%" y2="78.45%"><stop offset="0%" stop-color="#387EB8"/><stop offset="100%" stop-color="#366994"/></linearGradient><linearGradient id="b" x1="19.13%" x2="90.74%" y1="20.32%" y2="88.77%"><stop offset="0%" stop-color="#FFE052"/><stop offset="100%" stop-color="#FFC331"/></linearGradient></defs><g fill="none"><path fill="url(#a)" d="M9.47.17C4.8.17 5.09 2.2 5.09 2.2v2.12h4.46v.64H3.32S.33 4.62.33 9.37c0 4.76 2.61 4.6 2.61 4.6H4.5v-2.21s-.08-2.63 2.57-2.63h4.42s2.48.04 2.48-2.43V2.63S14.35.17 9.47.17zM7 1.59c.44 0 .8.36.8.81a.8.8 0 0 1-.8.81.8.8 0 0 1-.8-.8c0-.46.36-.82.8-.82z"/><path fill="url(#b)" d="M9.6 18.64c4.67 0 4.38-2.05 4.38-2.05v-2.11H9.52v-.64h6.23s2.99.34 2.99-4.41c0-4.76-2.61-4.59-2.61-4.59h-1.56v2.2s.08 2.64-2.57 2.64H7.58S5.1 9.64 5.1 12.1v4.07s-.38 2.47 4.5 2.47zm2.46-1.43a.8.8 0 0 1-.8-.8c0-.45.36-.81.8-.81a.8.8 0 0 1 0 1.62z"/></g></svg>