
<svg xmlns="http://www.w3.org/2000/svg" width="110" height="190" viewBox="0 0 11 19"><g fill="#00546B"><path d="M10.13 14.7c-.6-.03-1.06.07-1.45.36-.11.08-.3.08-.3.33.05.1.06.28.11.42.1.27.25.62.4.8.15.22.3.43.47.61.3.32.62.5.9.82.17.18.34.42.5.62.08.1.14.27.24.34v-.04c-.05-.12-.07-.29-.12-.42l-.22-.38a5.76 5.76 0 0 0-.78-1.33c-.24-.3-.77-.69-.86-1.17L9 15.63c.17-.03.36-.13.52-.21.25-.12.48-.1.75-.21.12-.05.24-.12.36-.19v-.11c-.14-.24-.24-.56-.38-.78a13.1 13.1 0 0 0-1.23-1.62c-.23-.26-.53-.43-.78-.66-.09-.08-.24-.12-.3-.25-.13-.29-.2-.67-.3-1.01-.22-.73-.43-1.53-.61-2.3-.14-.5-.22-1.02-.38-1.5-.77-2.23-1.61-3.59-2.9-4.92-.28-.27-.6-.4-.96-.54l-.56-.05C2.11 1.18 2 .94 1.9.82 1.46.35.36-.68.05.68c-.2.85.3 1.7.47 2.13.13.3.29.64.38.99.05.22.07.46.12.7.12.57.23 1.22.39 1.76.08.27.17.56.28.81.06.15.16.21.18.45-.1.26-.11.66-.17.99a9.86 9.86 0 0 0 .22 4.42c.12.33.4 1.05.78.78.34-.24.26-.99.36-1.65.02-.16.01-.26.05-.37v.03l.31 1.1c.23.64.64 1.3.97 1.76.18.23.33.64.55.79v-.04h-.01c-.05-.12-.12-.17-.18-.27a6.72 6.72 0 0 1-.39-.79c-.31-.73-.59-1.55-.83-2.4-.12-.4-.23-.85-.33-1.26-.04-.15-.04-.4-.12-.47-.1.29-.27.54-.35.9-.15.56-.16 1.26-.21 1.98-.03.02-.02 0-.03.03-.24-.1-.33-.54-.42-.9a9.84 9.84 0 0 1-.06-3.52c.05-.28.27-1.15.18-1.41-.04-.25-.19-.4-.27-.6-.1-.24-.2-.56-.27-.84-.18-.73-.27-1.55-.47-2.29-.09-.34-.24-.7-.37-1.01-.14-.36-.3-.6-.41-1.03C.36 1.31.3 1.07.37.91.38.81.4.77.47.74.57.6.85.78.94.86c.28.2.51.38.75.66.1.13.21.38.35.45h.15c.24.09.51.02.74.14.4.22.75.55 1.07.9.98 1.1 1.8 2.65 2.34 4.51.09.3.13.58.2.9l.52 1.93c.15.62.3 1.25.53 1.77.11.27.56.42.76.56.15.12.38.22.52.37.25.28.5.6.75.9.12.15.49.48.51.75z"/><path d="M2.51 3c-.21 0-.36.02-.51.05v.03h.03c.1.17.27.29.4.44l.28.52.03-.02c.17-.1.26-.28.26-.54-.08-.08-.09-.15-.15-.23-.07-.1-.24-.16-.34-.25z"/></g></svg>