<svg height="239" viewBox="0 0 241 239" width="241" xmlns="http://www.w3.org/2000/svg"><path d="m103.11 84.31c3.022-3.02 4.536-6.548 4.536-11.083v-57.948c0-8.061-6.552-14.611-14.614-14.611-8.063 0-14.613 6.55-14.613 14.611v33.259l-28.217-16.63c-7.054-4.533-16.125-2.519-20.154 4.535-4.535 7.056-2.521 16.125 4.533 20.156.504 0 .504.503 1.01.503l50.388 29.225c5.038 3.527 12.596 2.521 17.131-2.017zm-21.667 35.273c0-5.543-2.521-10.582-7.56-13.103l-50.386-29.225c-7.056-4.533-16.125-2.519-20.156 4.535-4.536 7.057-2.519 16.125 4.535 20.156.504 0 .504.504 1.007.504l28.721 16.628-28.721 16.63c-7.054 4.029-10.078 12.597-6.046 20.156 4.032 7.558 12.597 10.075 20.154 6.044h1.007l50.391-29.223c4.533-2.52 7.054-7.559 7.054-13.102zm26.203 45.854v58.451c0 8.062-6.552 14.611-14.614 14.611-8.063 0-14.613-6.55-14.613-14.611v-32.753l-28.721 16.629c-7.054 4.533-16.125 2.519-20.154-4.535-4.536-7.055-2.521-16.125 4.533-20.156.503 0 .503-.504 1.007-.504l50.391-29.225c7.054-4.032 16.628-1.512 20.658 6.046 1.007 1.51 2.014 4.032 1.513 6.047zm26.2 1.512v56.938c0 8.062 6.55 14.611 14.613 14.611 8.061 0 14.611-6.55 14.611-14.611v-32.753l28.217 16.125c7.054 4.533 16.125 2.519 20.156-4.535 4.536-7.057 2.519-16.125-4.535-20.156-.504 0-.504-.504-1.007-.504l-50.389-29.225c-7.054-4.032-16.125-1.512-20.156 5.543-1.006 2.518-2.014 6.047-1.51 8.567zm26.203-47.366c0-5.543 2.518-10.582 7.557-13.103l50.389-29.225c7.054-4.533 16.125-2.519 20.156 4.535 4.533 7.057 2.519 16.125-4.536 20.156-.503 0-.503.504-1.007.504l-28.723 16.628 28.723 16.629c7.054 4.029 10.076 12.597 6.046 20.156-4.031 7.054-12.599 10.075-20.156 6.044-.503 0-.503-.504-1.007-.504l-50.388-29.225c-4.536-2.013-7.558-7.052-7.054-12.595zm-26.203-47.364v-56.94c0-8.061 6.55-14.611 14.613-14.611 8.061 0 14.611 6.55 14.611 14.611v32.753l28.217-16.125c7.054-4.533 16.125-2.519 20.156 4.535 4.536 7.056 2.519 16.125-4.535 20.156-.504 0-.504.503-1.007.503l-50.389 29.225c-7.054 4.032-16.125 1.512-20.156-5.542-1.006-2.518-2.014-5.543-1.51-8.565zm-7.054 21.162c-1.007-1.006-2.017-1.512-3.528-1.512h-5.039c-1.511 0-2.519.506-3.526 1.512l-20.156 20.156c-1.007 1.007-1.511 2.015-1.511 3.525v5.041c0 1.512.504 2.519 1.511 3.526l20.156 20.156c1.007 1.007 2.015 1.511 3.526 1.511h5.039c1.511 0 2.521-.504 3.528-1.511l20.154-20.156c.504-1.008 1.009-2.519 1.009-3.526v-5.041c0-1.511-.505-2.519-1.513-3.525zm-3.024 17.638c-.504-.506-1.511-1.01-2.519-1.01-1.01 0-2.017.504-2.519 1.01l-6.048 6.044c-.504.504-1.008 1.514-1.008 2.521 0 1.008.504 2.017 1.008 2.521l6.048 6.045c.501.503 1.509 1.009 2.519 1.009 1.007 0 2.015-.506 2.519-1.009l6.046-6.045c.503-.504 1.009-1.513 1.009-2.521 0-1.007-.506-2.017-1.009-2.521z" fill="#31bef0"/></svg>