<svg xmlns="http://www.w3.org/2000/svg" width="630.946" height="590.833"><defs><clipPath id="b"><path d="M0 1090.667h612V0H0v1090.667z"/></clipPath><clipPath id="c"><path d="M160.801 1054.46H432.99V882.003H160.801v172.457z"/></clipPath><clipPath id="d"><path d="M107.76 1036.47h158.893V929.714H107.76v106.756z"/></clipPath><clipPath id="e"><path d="M26.438 1007.89H493.76V764.032H26.438v243.858z"/></clipPath><clipPath id="f"><path d="M273.938 774.952h210.147v-95.281H273.938v95.281z"/></clipPath><clipPath id="g"><path d="M31.298 985.162h48.305V786.525H31.298v198.637z"/></clipPath><clipPath id="h"><path d="M23.055 1075.55h203.54v-46.41H23.055v46.41z"/></clipPath><clipPath id="i"><path d="M279.427 923.682H429.38V806.33H279.427v117.352z"/></clipPath><clipPath id="j"><path d="M128.13 835.578h26.543v-105H128.13v105z"/></clipPath><clipPath id="k"><path d="M213.16 781.584h78.444v-80.179H213.16v80.179z"/></clipPath><clipPath id="l"><path d="M86.315 908.898h294.983V619.173H86.315v289.725z"/></clipPath><clipPath id="m"><path d="M120.511 689.474h40.439v-73.733h-40.439v73.733z"/></clipPath><clipPath id="n"><path d="M415.58 953.875h92.88V779.06h-92.88v174.815z"/></clipPath><linearGradient x2="1" gradientUnits="userSpaceOnUse" gradientTransform="scale(-447.8083 447.8083) rotate(-73 1.224 1.615)" id="a"><stop offset="0" stop-color="#b1dfff"/><stop offset=".6" stop-color="#0fabff"/><stop offset="1" stop-color="#0089cc"/></linearGradient></defs><path d="M24.548 1010.156c.596-.978 1.042-1.477 1.042-1.477s90.627-382.257 97.767-385.582c9.132-4.254 103.874 33.179 193.744 70.611 90.085 37.522 175.273 75.045 164.43 70.581l13.781 10.037 1.501 1.462c22.942 13.862 9.043 56.704 9.043 56.704l-97.422 130.221-175.825 95.228-172.047 17.85c-48.803-36.498-39.627-59.748-36.014-65.635" fill="url(#a)" transform="matrix(1.25 0 0 -1.25 -16.7 1356.392)"/><g clip-path="url(#b)" transform="matrix(1.25 0 0 -1.25 -16.7 1356.392)"><g clip-path="url(#c)" opacity=".75"><path d="M236.06 1054.455l-75.259-11.844 115.531-106.298 156.658-54.31-25.768 81.568-171.162 90.884z" fill="#fff"/></g><g clip-path="url(#d)" opacity=".75"><path d="M151.996 1036.469l-44.236-86.497 158.893-20.258-114.657 106.755z" fill="#fff"/></g><g clip-path="url(#e)" opacity=".79"><path d="M493.76 776.04s-163.448 22.99-246.38 67.795c-82.926 44.812-103.032 60.428-220.942 164.057l5.9-24.78s106.193-105.01 183.766-142.43c77.575-37.42 185.15-66.636 266.149-76.65l11.507 12.007z" fill="#b5def6"/></g><g clip-path="url(#f)" opacity=".6"><path d="M427.862 774.952c9.036-.769 8.354-1.114 56.223-10.354l-210.147-84.927 153.924 95.281z" fill="#b5def6"/></g><g clip-path="url(#g)" opacity=".6"><path d="M72.036 948.44c-2.839 5.853-40.738 36.721-40.738 36.721l48.305-198.636" fill="#b5def6"/></g><g clip-path="url(#h)" opacity=".75"><path d="M226.595 1057.533L61.524 1075.55s-33.538-23.621-38.47-46.414l203.54 28.396z" fill="#fff"/></g><g clip-path="url(#i)" opacity=".75"><path d="M429.38 871.948l-149.953 51.734 92.006-117.352 57.947 65.618z" fill="#fff"/></g><g clip-path="url(#j)" opacity=".46"><path d="M154.673 835.578l-26.543-80.113 4.933-24.887 21.61 105z" fill="#fff"/></g><g clip-path="url(#k)" opacity=".35"><path d="M291.603 781.584l-78.443-80.179 15.51 3.761 62.934 76.418z" fill="#fff"/></g><g><g clip-path="url(#l)" opacity=".8"><path d="M381.288 753.566c-1.525 2.578-207.802-84.28-207.802-84.28l26.511 27.74 23.207 113.596-.078-.08.037.17-80.609-83.332-7.91-37.553S89.755 909.1 86.765 908.898c-2.99-.198 9.936-197.083 9.936-197.083s25.212-90.83 25.55-91.532l-.369-.69a1.91 1.91 0 0 1 .621-.04c.085-.13.174-.263.292-.38l.313.59c.764.116 89.956 30.636 89.956 30.636s169.748 100.59 168.224 103.167" fill="#b5def6"/></g></g><g><path d="M229.58 1038.464c-15.76 2.61-29.876-3.352-31.525-13.315-1.579-9.531 8.837-19.254 23.542-22.365.186-4.086 4.978-8.018 11.452-9.09 7.061-1.17 13.382 1.5 14.122 5.962.292 1.756-.35 3.517-1.632 5.09 5.22 2.439 8.813 6.239 9.59 10.955 1.655 9.965-9.79 20.156-25.549 22.763" fill="#fff"/></g><g><path d="M27.913 986.104s23.08-21.81 47.215-42.748c24.14-20.94-46.274 32.904-48.69 37.025" fill="#0988c9"/></g><g><g clip-path="url(#m)" opacity=".8"><path d="M130.842 615.741l22.81 34.131-17.027-19.97 24.325 59.571-33.999-61.555-2.668 48.777-3.772-60.436 10.331-.518z" fill="#fff"/></g></g><g><path d="M61.953 1085.113c-2.25 0-4.27-.623-6.005-1.85-22.572-16.048-36.33-32.553-40.909-49.067-4.07-14.68.351-25.28 1.804-28.764l.073-.175c2.202-9.575 24.165-102.033 46.464-192.829 13.567-55.244 24.702-99.483 33.095-131.49 4.975-18.97 9.02-33.763 12.025-43.967 5.33-18.099 6.95-21.399 11.555-23.54 1.398-.652 2.938-.984 4.568-.984 3.918 0 11.21 0 186.363 71.06 74.253 30.124 172.188 70.533 174.606 71.93 2.16 1.245 6.883 5.251 14.048 11.91 10.46 8.116 16.735 21.924 18.16 39.98 1.05 13.295-.79 24.88-1.542 27.376-.633 2.101-.633 2.101-16.93 23.947a21872.916 21872.916 0 0 1-33.487 44.727 64098.337 64098.337 0 0 1-48.579 64.655l-1.328 1.765-1.949 1.035-178.17 94.697-1.666.884-1.873.214c-27.094 3.087-162.637 18.486-170.323 18.486m0-9.937c7.511 0 169.198-18.422 169.198-18.422l178.171-94.696s97.048-128.979 97.422-130.22c.81-2.685 6.766-41.63-13.52-56.89 0 0-10.27-9.563-12.599-10.906-2.302-1.329-341.362-141.658-356.002-141.658-.169 0-.296.018-.378.056-7.14 3.32-96.845 381.106-97.768 385.584-.586 2.842-18.042 29.266 35.212 67.13.022.015.111.022.264.022" fill="#0988c9"/></g><g><g clip-path="url(#n)" opacity=".75"><path d="M415.58 953.875l90.854-121.284s8.27-36.543-8.607-53.531L415.58 953.875z" fill="#fff"/></g></g><g><path d="M484.085 764.032s-43.743 4.662-66.581 10.92c-22.843 6.257 20.199-9.314 63.693-13.893" fill="#0988c9"/></g><g><path d="M120.243 628.818c2.207 3.001-.022-7.418 7.543-5.57 7.564 1.846-4.215-5.153-4.714-5.11-.497.044-5.802 3.96-5.82 4.462-.019.504.783 3.218 2.991 6.218" fill="#0e89cb"/></g></g></svg>