<svg width="256" height="252" xmlns="http://www.w3.org/2000/svg" preserveAspectRatio="xMidYMid"><path d="M235.6 194.2c-13.9-.3-24.7 1-33.7 4.9-2.6 1-6.8 1-7.1 4.3 1.4 1.4 1.5 3.7 2.7 5.6 2.1 3.5 5.8 8.2 9 10.6 3.7 2.8 7.4 5.6 11.2 8 6.8 4.2 14.5 6.6 21 10.8 4 2.4 7.7 5.6 11.6 8.2 1.9 1.4 3 3.6 5.5 4.5v-.5c-1.2-1.6-1.5-3.8-2.8-5.6l-5.2-5a82.5 82.5 0 0 0-18-17.6c-5.6-3.8-17.8-9-20-15.5l-.4-.3c3.8-.4 8.3-1.8 12-2.8 5.9-1.6 11.3-1.2 17.4-2.8 2.8-.7 5.5-1.6 8.3-2.4V197c-3.1-3.1-5.4-7.3-8.7-10.3a232 232 0 0 0-28.7-21.4c-5.4-3.4-12.3-5.7-18-8.7-2.2-1-5.6-1.5-6.9-3.3-3-3.8-4.8-8.8-7-13.4-5.1-9.5-10-20.2-14.4-30.2-3-6.8-5-13.6-8.8-19.9a175.3 175.3 0 0 0-67.4-65c-6.4-3.7-14-5.3-22.2-7.2L52 17c-2.9-1.2-5.6-4.5-8-6C34 4.5 8.3-9 1 8.8c-4.7 11.3 7 22.5 11 28.2 3 4 6.8 8.5 8.9 13 1.2 3 1.5 6.1 2.7 9.3 2.8 7.6 5.4 16.2 9 23.3 2 3.6 4 7.5 6.5 10.8 1.4 1.9 3.9 2.8 4.4 5.9-2.5 3.5-2.6 8.7-4 13-6.3 19.7-3.9 44 5 58.5 2.8 4.3 9.4 14 18.3 10.3 7.8-3.2 6-13 8.3-21.8.6-2 .2-3.5 1.3-4.9v.4c2.4 4.9 4.8 9.6 7 14.4a99.3 99.3 0 0 0 22.7 23.3c4.2 3.2 7.5 8.6 12.7 10.5v-.5h-.3c-1-1.6-2.7-2.3-4-3.5-3.2-3.1-6.7-7-9-10.5A223.8 223.8 0 0 1 82 157c-2.8-5.4-5.2-11.3-7.5-16.7-1-2.1-1-5.2-2.7-6.3-2.7 3.8-6.5 7.1-8.4 11.8-3.3 7.5-3.6 16.7-4.9 26.3-.7.2-.3 0-.7.4-5.5-1.4-7.4-7.2-9.5-12a75.3 75.3 0 0 1-1.6-46.5c1.2-3.6 6.4-15.1 4.4-18.6-1-3.3-4.6-5.2-6.5-7.8a70.1 70.1 0 0 1-6.2-11.2C34.2 66.7 32 56 27.6 46.2c-2.1-4.6-5.8-9.3-8.7-13.4-3.3-4.7-7-8-9.6-13.6-.9-2-2-5-.7-7.1.4-1.4 1-2 2.4-2.3 2.3-2 8.7.5 11 1.6 6.4 2.6 11.8 5 17.2 8.7 2.5 1.7 5 5 8.2 5.9h3.7c5.5 1.2 11.8.3 17 1.9 9.2 3 17.6 7.3 25 12 22.9 14.4 41.6 35 54.3 59.5 2.1 4 3 7.6 5 11.8 3.6 8.5 8 17.2 11.7 25.6 3.7 8.2 7.2 16.5 12.4 23.3 2.6 3.7 13 5.6 17.7 7.5 3.5 1.6 9 3 12 4.9a305 305 0 0 1 17.4 11.8c2.8 2 11.5 6.4 12 10z" fill="#00546B"/><path d="M58.2 43c-3 0-5 .4-7.1.9v.3h.3c1.4 2.8 3.8 4.7 5.6 7.2l4 8.3.3-.3c2.5-1.8 3.7-4.5 3.7-8.7-1-1.2-1.2-2.5-2.1-3.7-1-1.7-3.3-2.6-4.7-4z" fill="#00546B"/></svg>